# xmcd CD database file
#
# Track frame offsets:
#	183
#	26278
#	50940
#	72255
#	95668
#	123493
#	153203
#	178365
#	194000
#
# Disc length: 2888 seconds
#
# Revision: 0
# Processed by: cddbd v1.5.1PL2 Copyright (c) Steve Scherf et al.
# Submitted via: CDex 1.51
#
DISCID=830b4609
DTITLE=Pablo Guerrero - Toda La Vida Es Ahora
DYEAR=1992
DGENRE=New Age
TTITLE0=Zona De Luz
TTITLE1=Lobos Sin Dueño
TTITLE2=Limites
TTITLE3=El Guardian Dormido
TTITLE4=Mar Y Cielo Y Cielo Y Mar
TTITLE5=Sol De Mediodia
TTITLE6=Toda La Vida Es Ahora
TTITLE7=Duerme Lisboa
TTITLE8=Aerolitos
EXTD=YEAR: 1992
EXTT0=
EXTT1=
EXTT2=
EXTT3=
EXTT4=
EXTT5=
EXTT6=
EXTT7=
EXTT8=
PLAYORDER=
